STARTFONT 2.1
FONT -MIT-S25XIF KST-Medium-R-Normal--25-9-200-200-P-16-ISO8859-1
SIZE 9 200 200
FONTBOUNDINGBOX 16 25 -7 -5
STARTPROPERTIES 17
ADD_STYLE_NAME ""
AVERAGE_WIDTH 16
CHARSET_ENCODING "1"
CHARSET_REGISTRY "ISO8859"
DEFAULT_CHAR 0
FAMILY "S25XIF KST"
FONT_ASCENT 20
FONT_DESCENT 5
FOUNDRY "MIT"
PIXEL_SIZE 25
POINT_SIZE 9
RESOLUTION_X 200
RESOLUTION_Y 200
SETWIDTH_NAME "Normal"
SLANT "R"
SPACING "P"
WEIGHT_NAME "Medium"
ENDPROPERTIES
CHARS 128
STARTCHAR char0
ENCODING 0
SWIDTH 1776 0
DWIDTH 16 0
BBX 14 25 0 -5
BITMAP
FFFC
FFFC
C000
C000
C000
C000
C000
C1F0
C7F8
C60C
CC0C
CCE4
CDF4
CD94
CD94
CCFC
CC00
C600
C7FC
C1FC
0000
0000
0000
0000
0000
ENDCHAR
STARTCHAR char1
ENCODING 1
SWIDTH 1776 0
DWIDTH 16 0
BBX 14 25 0 -5
BITMAP
FFFC
FFFC
C000
C000
C000
C3E0
C7F0
CE38
CC18
CC18
CC18
CC18
CFF8
CFF8
CC18
CC18
CC18
CC18
CC18
CC18
0000
0000
0000
0000
0000
ENDCHAR
STARTCHAR char2
ENCODING 2
SWIDTH 1776 0
DWIDTH 16 0
BBX 14 25 0 -5
BITMAP
FFFC
FFFC
C000
C000
C000
CFC0
CFE0
CC70
CC30
CC30
CC60
CFE0
CFF0
CC30
CC18
CC18
CC18
CC38
CFF0
CFC0
0000
0000
0000
0000
0000
ENDCHAR
STARTCHAR char3
ENCODING 3
SWIDTH 1776 0
DWIDTH 16 0
BBX 14 25 0 -5
BITMAP
FFFC
FFFC
C000
C000
C000
C3E0
C7F0
CE38
CC18
CC00
CC00
CC00
CC00
CC00
CC00
CC00
CC18
CE38
C7F0
C3E0
0000
0000
0000
0000
0000
ENDCHAR
STARTCHAR char4
ENCODING 4
SWIDTH 1776 0
DWIDTH 16 0
BBX 14 25 0 -5
BITMAP
FFFC
FFFC
C000
C000
C000
CFE0
CFF0
CC38
CC18
CC18
CC18
CC18
CC18
CC18
CC18
CC18
CC18
CC38
CFF0
CFE0
0000
0000
0000
0000
0000
ENDCHAR
STARTCHAR char5
ENCODING 5
SWIDTH 1776 0
DWIDTH 16 0
BBX 14 25 0 -5
BITMAP
FFFC
FFFC
C000
C000
C000
CFF8
CFF8
CC00
CC00
CC00
CC00
CFE0
CFE0
CC00
CC00
CC00
CC00
CC00
CFF8
CFF8
0000
0000
0000
0000
0000
ENDCHAR
STARTCHAR char6
ENCODING 6
SWIDTH 1776 0
DWIDTH 16 0
BBX 14 25 0 -5
BITMAP
FFFC
FFFC
C000
C000
C000
CFF8
CFF8
CC00
CC00
CC00
CC00
CC00
CFE0
CFE0
CC00
CC00
CC00
CC00
CC00
CC00
0000
0000
0000
0000
0000
ENDCHAR
STARTCHAR char7
ENCODING 7
SWIDTH 1776 0
DWIDTH 16 0
BBX 14 25 0 -5
BITMAP
FFFC
FFFC
C000
C000
C000
C3E0
C7F0
CE38
CC18
CC00
CC00
CC00
CC00
CC78
CC78
CC18
CC18
CE38
C7F0
C3E0
0000
0000
0000
0000
0000
ENDCHAR
STARTCHAR char8
ENCODING 8
SWIDTH 1776 0
DWIDTH 16 0
BBX 14 25 0 -5
BITMAP
FFFC
FFFC
C000
C000
C000
CC18
CC18
CC18
CC18
CC18
CC18
CFF8
CFF8
CC18
CC18
CC18
CC18
CC18
CC18
CC18
0000
0000
0000
0000
0000
ENDCHAR
STARTCHAR char9
ENCODING 9
SWIDTH 1776 0
DWIDTH 16 0
BBX 14 25 0 -5
BITMAP
FFFC
FFFC
C000
C000
C000
C3F0
C3F0
C0C0
C0C0
C0C0
C0C0
C0C0
C0C0
C0C0
C0C0
C0C0
C0C0
C0C0
C3F0
C3F0
0000
0000
0000
0000
0000
ENDCHAR
STARTCHAR char10
ENCODING 10
SWIDTH 1776 0
DWIDTH 16 0
BBX 14 25 0 -5
BITMAP
FFFC
FFFC
C000
C000
C000
C018
C018
C018
C018
C018
C018
C018
C018
C018
C018
C018
CC18
CC38
C7F0
C3E0
0000
0000
0000
0000
0000
ENDCHAR
STARTCHAR char11
ENCODING 11
SWIDTH 1776 0
DWIDTH 16 0
BBX 14 25 0 -5
BITMAP
FFFC
FFFC
C000
C000
C000
CC18
CC30
CC60
CCC0
CD80
CF00
CE00
CE00
CF00
CD80
CCC0
CC60
CC30
CC18
CC08
0000
0000
0000
0000
0000
ENDCHAR
STARTCHAR char12
ENCODING 12
SWIDTH 1776 0
DWIDTH 16 0
BBX 14 25 0 -5
BITMAP
FFFC
FFFC
C000
C000
C000
CC00
CC00
CC00
CC00
CC00
CC00
CC00
CC00
CC00
CC00
CC00
CC00
CC00
CFF8
CFF8
0000
0000
0000
0000
0000
ENDCHAR
STARTCHAR char13
ENCODING 13
SWIDTH 1776 0
DWIDTH 16 0
BBX 11 25 0 -5
BITMAP
0000
0000
0000
0000
0000
FF00
FF80
00C0
0060
0060
0060
00C0
0180
C300
C600
CC00
D800
F000
FF00
FF00
0000
0000
0000
0000
0000
ENDCHAR
STARTCHAR char14
ENCODING 14
SWIDTH 1776 0
DWIDTH 16 0
BBX 14 25 0 -5
BITMAP
FFFC
FFFC
C000
C000
C000
CC18
CE18
CE18
CF18
CF18
CD98
CD98
CDD8
CCD8
CCD8
CC78
CC78
CC38
CC38
CC18
0000
0000
0000
0000
0000
ENDCHAR
STARTCHAR char15
ENCODING 15
SWIDTH 1776 0
DWIDTH 16 0
BBX 14 25 0 -5
BITMAP
FFFC
FFFC
C000
C000
C000
C3E0
C7F0
CE38
CC18
CC18
CC18
CC18
CC18
CC18
CC18
CC18
CC18
CE38
C7F0
C3E0
0000
0000
0000
0000
0000
ENDCHAR
STARTCHAR char16
ENCODING 16
SWIDTH 1776 0
DWIDTH 16 0
BBX 14 25 0 -5
BITMAP
FFFC
FFFC
C000
C000
C000
CFE0
CFF0
CC38
CC18
CC18
CC18
CC38
CFF0
CFE0
CC00
CC00
CC00
CC00
CC00
CC00
0000
0000
0000
0000
0000
ENDCHAR
STARTCHAR char17
ENCODING 17
SWIDTH 1776 0
DWIDTH 16 0
BBX 14 25 0 -5
BITMAP
FFFC
FFFC
C000
C000
C3E0
C7F0
CE38
CC18
CC18
CC18
CC18
CC18
CC18
CC18
CC18
CC78
CE78
C7F0
C3FC
C00C
0000
0000
0000
0000
0000
ENDCHAR
STARTCHAR char18
ENCODING 18
SWIDTH 1776 0
DWIDTH 16 0
BBX 14 25 0 -5
BITMAP
FFFC
FFFC
C000
C000
C000
CFE0
CFF0
CC38
CC18
CC18
CC38
CFF0
CFE0
CCC0
CC60
CC60
CC30
CC30
CC18
CC18
0000
0000
0000
0000
0000
ENDCHAR
STARTCHAR char19
ENCODING 19
SWIDTH 1776 0
DWIDTH 16 0
BBX 14 25 0 -5
BITMAP
FFFC
FFFC
C000
C000
C000
C3E0
C7F0
CC38
CC18
CC00
CC00
C7E0
C3F0
C038
C018
C018
CC18
CC38
CFF0
C7E0
0000
0000
0000
0000
0000
ENDCHAR
STARTCHAR char20
ENCODING 20
SWIDTH 1776 0
DWIDTH 16 0
BBX 14 25 0 -5
BITMAP
FFFC
FFFC
C000
C000
C000
CFFC
CFFC
C0C0
C0C0
C0C0
C0C0
C0C0
C0C0
C0C0
C0C0
C0C0
C0C0
C0C0
C0C0
C0C0
0000
0000
0000
0000
0000
ENDCHAR
STARTCHAR char21
ENCODING 21
SWIDTH 1776 0
DWIDTH 16 0
BBX 14 25 0 -5
BITMAP
FFFC
FFFC
C000
C000
C000
CC18
CC18
CC18
CC18
CC18
CC18
CC18
CC18
CC18
CC18
CC18
CC18
CE38
C7F0
C3E0
0000
0000
0000
0000
0000
ENDCHAR
STARTCHAR char22
ENCODING 22
SWIDTH 1776 0
DWIDTH 16 0
BBX 14 25 0 -5
BITMAP
FFFC
FFFC
C000
C000
C000
CC0C
CC0C
CC0C
CC0C
C618
C618
C618
C330
C330
C330
C120
C1E0
C1E0
C0C0
C0C0
0000
0000
0000
0000
0000
ENDCHAR
STARTCHAR char23
ENCODING 23
SWIDTH 1776 0
DWIDTH 16 0
BBX 14 25 0 -5
BITMAP
FFFC
FFFC
C000
C000
C000
CC18
CC18
CC18
CC18
CC18
CC18
CC18
CC18
CC98
CDD8
CD58
CD58
CF78
CE38
CC18
0000
0000
0000
0000
0000
ENDCHAR
STARTCHAR char24
ENCODING 24
SWIDTH 1776 0
DWIDTH 16 0
BBX 14 25 0 -5
BITMAP
FFFC
FFFC
C000
C000
C000
CC18
CC18
C630
C630
C360
C360
C1C0
C1C0
C1C0
C360
C360
C630
C630
CC18
CC18
0000
0000
0000
0000
0000
ENDCHAR
STARTCHAR char25
ENCODING 25
SWIDTH 1776 0
DWIDTH 16 0
BBX 14 25 0 -5
BITMAP
FFFC
FFFC
C000
C000
C000
CC0C
CC0C
C618
C618
C330
C330
C1E0
C1E0
C0C0
C0C0
C0C0
C0C0
C0C0
C0C0
C0C0
0000
0000
0000
0000
0000
ENDCHAR
STARTCHAR char26
ENCODING 26
SWIDTH 1776 0
DWIDTH 16 0
BBX 14 25 0 -5
BITMAP
FFFC
FFFC
C000
C000
C000
CFFC
CFFC
C004
C00C
C018
C030
C060
C0C0
C180
C300
C600
CC00
C800
CFFC
CFFC
0000
0000
0000
0000
0000
ENDCHAR
STARTCHAR char27
ENCODING 27
SWIDTH 1776 0
DWIDTH 16 0
BBX 14 25 0 -5
BITMAP
3FF0
6018
C00C
8304
8FC4
9FE4
B374
B334
B304
9F84
87E4
8334
8334
B334
BFE4
9FC4
8304
C00C
6018
3FF0
0000
0000
0000
0000
0000
ENDCHAR
STARTCHAR char28
ENCODING 28
SWIDTH 1776 0
DWIDTH 16 0
BBX 14 25 0 -5
BITMAP
FFFC
FFFC
C000
C000
C000
CC00
CC00
C600
C600
C300
C300
C180
C180
C0C0
C060
C060
C030
C030
C018
C018
0000
0000
0000
0000
0000
ENDCHAR
STARTCHAR char29
ENCODING 29
SWIDTH 1776 0
DWIDTH 16 0
BBX 14 25 0 -5
BITMAP
FFFC
FFFC
C000
C000
C000
C3E0
C3E0
C060
C060
C060
C060
C060
C060
C060
C060
C060
C060
C060
C3E0
C3E0
0000
0000
0000
0000
0000
ENDCHAR
STARTCHAR char30
ENCODING 30
SWIDTH 1776 0
DWIDTH 16 0
BBX 14 25 0 -5
BITMAP
FFFC
FFFC
C000
C000
C000
C0C0
C1E0
C3F0
C6D8
CCCC
C8C4
C0C0
C0C0
C0C0
C0C0
C0C0
C0C0
C0C0
C0C0
C0C0
0000
0000
0000
0000
0000
ENDCHAR
STARTCHAR char31
ENCODING 31
SWIDTH 1776 0
DWIDTH 16 0
BBX 14 25 0 -5
BITMAP
FFFC
FFFC
C000
C000
C000
C000
C000
C000
C100
C300
C600
CFFC
CFFC
C600
C300
C100
C000
C000
C000
C000
0000
0000
0000
0000
0000
ENDCHAR
STARTCHAR char32
ENCODING 32
SWIDTH 1776 0
DWIDTH 16 0
BBX 1 25 0 -5
BITMAP
00
00
00
00
00
00
00
00
00
00
00
00
00
00
00
00
00
00
00
00
00
00
00
00
00
ENDCHAR
STARTCHAR char33
ENCODING 33
SWIDTH 1776 0
DWIDTH 16 0
BBX 3 25 6 -5
BITMAP
E0
E0
E0
E0
E0
E0
E0
E0
E0
E0
E0
E0
E0
E0
00
00
00
E0
E0
E0
00
00
00
00
00
ENDCHAR
STARTCHAR char34
ENCODING 34
SWIDTH 1776 0
DWIDTH 16 0
BBX 7 25 3 -5
BITMAP
C6
C6
C6
C6
C6
C6
C6
C6
00
00
00
00
00
00
00
00
00
00
00
00
00
00
00
00
00
ENDCHAR
STARTCHAR char35
ENCODING 35
SWIDTH 1776 0
DWIDTH 16 0
BBX 14 25 0 -5
BITMAP
060C
060C
060C
0C18
0C18
7FFC
7FFC
1830
1830
1830
3060
3060
3060
FFF8
FFF8
60C0
60C0
C180
C180
C180
0000
0000
0000
0000
0000
ENDCHAR
STARTCHAR char36
ENCODING 36
SWIDTH 1776 0
DWIDTH 16 0
BBX 12 25 1 -5
BITMAP
1980
1980
3FC0
7FE0
F9F0
D9B0
D980
F980
7980
3F80
1FC0
19E0
19F0
19B0
D9B0
F9F0
7FE0
3FC0
1980
1980
0000
0000
0000
0000
0000
ENDCHAR
STARTCHAR char37
ENCODING 37
SWIDTH 1776 0
DWIDTH 16 0
BBX 14 25 0 -5
BITMAP
0018
3818
7C30
C630
C660
C660
7CC0
38C0
0180
0180
0300
0300
0600
0670
0CF8
0D8C
198C
198C
30F8
3070
0000
0000
0000
0000
0000
ENDCHAR
STARTCHAR char38
ENCODING 38
SWIDTH 1776 0
DWIDTH 16 0
BBX 14 25 0 -5
BITMAP
03C0
0EE0
0C70
1830
1830
1C60
0EE0
0780
1F00
3F00
7380
E1C0
E1CC
E0EC
E0EC
E078
7078
78FC
3FCC
0F80
0000
0000
0000
0000
0000
ENDCHAR
STARTCHAR char39
ENCODING 39
SWIDTH 1776 0
DWIDTH 16 0
BBX 5 25 3 -5
BITMAP
70
F8
F8
78
38
30
60
40
00
00
00
00
00
00
00
00
00
00
00
00
00
00
00
00
00
ENDCHAR
STARTCHAR char40
ENCODING 40
SWIDTH 1776 0
DWIDTH 16 0
BBX 6 25 6 -5
BITMAP
1C
38
30
60
60
60
60
E0
E0
E0
E0
E0
E0
60
60
60
60
30
38
1C
00
00
00
00
00
ENDCHAR
STARTCHAR char41
ENCODING 41
SWIDTH 1776 0
DWIDTH 16 0
BBX 6 25 2 -5
BITMAP
E0
70
30
18
18
18
18
1C
1C
1C
1C
1C
1C
18
18
18
18
30
70
E0
00
00
00
00
00
ENDCHAR
STARTCHAR char42
ENCODING 42
SWIDTH 1776 0
DWIDTH 16 0
BBX 14 25 0 -5
BITMAP
0000
0000
0000
0000
0000
0000
0780
0780
0780
0300
E31C
E01C
F87C
1860
0000
0CC0
1CE0
3870
3870
3870
0000
0000
0000
0000
0000
ENDCHAR
STARTCHAR char43
ENCODING 43
SWIDTH 1776 0
DWIDTH 16 0
BBX 14 25 0 -5
BITMAP
0000
0000
0000
0000
0000
0000
0300
0300
0300
0300
0300
0300
FFFC
FFFC
0300
0300
0300
0300
0300
0300
0000
0000
0000
0000
0000
ENDCHAR
STARTCHAR char44
ENCODING 44
SWIDTH 1776 0
DWIDTH 16 0
BBX 5 25 3 -5
BITMAP
00
00
00
00
00
00
00
00
00
00
00
00
00
00
00
00
70
F8
F8
78
38
30
60
40
00
ENDCHAR
STARTCHAR char45
ENCODING 45
SWIDTH 1776 0
DWIDTH 16 0
BBX 12 25 1 -5
BITMAP
0000
0000
0000
0000
0000
0000
0000
0000
0000
0000
0000
0000
FFF0
FFF0
0000
0000
0000
0000
0000
0000
0000
0000
0000
0000
0000
ENDCHAR
STARTCHAR char46
ENCODING 46
SWIDTH 1776 0
DWIDTH 16 0
BBX 5 25 3 -5
BITMAP
00
00
00
00
00
00
00
00
00
00
00
00
00
00
00
70
F8
F8
F8
70
00
00
00
00
00
ENDCHAR
STARTCHAR char47
ENCODING 47
SWIDTH 1776 0
DWIDTH 16 0
BBX 12 25 1 -5
BITMAP
0070
0060
00E0
00C0
01C0
0180
0380
0300
0700
0600
0E00
0C00
1C00
1800
3800
3000
7000
6000
E000
C000
0000
0000
0000
0000
0000
ENDCHAR
STARTCHAR char48
ENCODING 48
SWIDTH 1776 0
DWIDTH 16 0
BBX 14 25 0 -5
BITMAP
1FE0
3FF0
7878
703C
603C
6038
6078
60F8
61D8
6398
6718
6E18
7C18
7818
7018
F018
F038
7878
3FF0
1FE0
0000
0000
0000
0000
0000
ENDCHAR
STARTCHAR char49
ENCODING 49
SWIDTH 1776 0
DWIDTH 16 0
BBX 10 25 1 -5
BITMAP
1C00
3C00
6C00
CC00
0C00
0C00
0C00
0C00
0C00
0C00
0C00
0C00
0C00
0C00
0C00
0C00
0C00
0C00
FFC0
FFC0
0000
0000
0000
0000
0000
ENDCHAR
STARTCHAR char50
ENCODING 50
SWIDTH 1776 0
DWIDTH 16 0
BBX 13 25 0 -5
BITMAP
1FC0
7FF0
6030
C018
C018
0018
0018
0030
0060
00C0
0180
0300
0600
0C00
1800
3000
6000
C000
FFF8
FFF8
0000
0000
0000
0000
0000
ENDCHAR
STARTCHAR char51
ENCODING 51
SWIDTH 1776 0
DWIDTH 16 0
BBX 13 25 0 -5
BITMAP
1FC0
7FF0
6030
C018
C018
0018
0030
0030
0060
07C0
07C0
0060
0030
0030
0018
C018
C018
6030
7FF0
1FC0
0000
0000
0000
0000
0000
ENDCHAR
STARTCHAR char52
ENCODING 52
SWIDTH 1776 0
DWIDTH 16 0
BBX 13 25 0 -5
BITMAP
0300
0700
0600
0C00
0C00
1800
1800
30C0
30C0
60C0
60C0
C0C0
C0C0
FFF8
FFF8
00C0
00C0
00C0
00C0
00C0
0000
0000
0000
0000
0000
ENDCHAR
STARTCHAR char53
ENCODING 53
SWIDTH 1776 0
DWIDTH 16 0
BBX 13 25 0 -5
BITMAP
FFF0
FFF0
C000
C000
C000
C000
C000
C000
C000
FFC0
FFF0
0030
0018
0018
0018
C018
C018
6030
7FF0
1FC0
0000
0000
0000
0000
0000
ENDCHAR
STARTCHAR char54
ENCODING 54
SWIDTH 1776 0
DWIDTH 16 0
BBX 13 25 0 -5
BITMAP
1FC0
7FF0
6030
C018
C018
C000
C000
C000
C000
C700
DFC0
F8F0
E030
C018
C018
C018
C018
6030
7FF0
1FC0
0000
0000
0000
0000
0000
ENDCHAR
STARTCHAR char55
ENCODING 55
SWIDTH 1776 0
DWIDTH 16 0
BBX 13 25 0 -5
BITMAP
FFF8
FFF8
0038
0030
0030
0060
0060
00C0
00C0
0180
0180
0300
0300
0600
0600
0C00
0C00
1800
1800
1800
0000
0000
0000
0000
0000
ENDCHAR
STARTCHAR char56
ENCODING 56
SWIDTH 1776 0
DWIDTH 16 0
BBX 13 25 0 -5
BITMAP
0F80
3FE0
3060
6030
6030
6030
3060
3DE0
0F80
0700
1FC0
78F0
6030
C018
C018
C018
C018
6030
7FF0
1FC0
0000
0000
0000
0000
0000
ENDCHAR
STARTCHAR char57
ENCODING 57
SWIDTH 1776 0
DWIDTH 16 0
BBX 13 25 0 -5
BITMAP
1FC0
7FF0
6030
C018
C018
C018
C018
6038
78F8
1FD8
0718
0018
0018
0018
0018
C018
C018
6030
7FF0
1FC0
0000
0000
0000
0000
0000
ENDCHAR
STARTCHAR char58
ENCODING 58
SWIDTH 1776 0
DWIDTH 16 0
BBX 5 25 3 -5
BITMAP
00
00
00
00
00
00
00
70
F8
F8
F8
70
00
00
00
70
F8
F8
F8
70
00
00
00
00
00
ENDCHAR
STARTCHAR char59
ENCODING 59
SWIDTH 1776 0
DWIDTH 16 0
BBX 5 25 3 -5
BITMAP
00
00
00
00
00
00
00
00
70
F8
F8
F8
70
00
00
00
70
F8
F8
78
38
30
60
40
00
ENDCHAR
STARTCHAR char60
ENCODING 60
SWIDTH 1776 0
DWIDTH 16 0
BBX 12 25 1 -5
BITMAP
0000
0000
0000
0000
0000
0000
0000
0030
00F0
03C0
0F00
3C00
F000
F000
3C00
0F00
03C0
00F0
0030
0000
0000
0000
0000
0000
0000
ENDCHAR
STARTCHAR char61
ENCODING 61
SWIDTH 1776 0
DWIDTH 16 0
BBX 12 25 1 -5
BITMAP
0000
0000
0000
0000
0000
0000
0000
0000
0000
0000
FFF0
FFF0
0000
0000
FFF0
FFF0
0000
0000
0000
0000
0000
0000
0000
0000
0000
ENDCHAR
STARTCHAR char62
ENCODING 62
SWIDTH 1776 0
DWIDTH 16 0
BBX 12 25 1 -5
BITMAP
0000
0000
0000
0000
0000
0000
0000
C000
F000
3C00
0F00
03C0
00F0
00F0
03C0
0F00
3C00
F000
C000
0000
0000
0000
0000
0000
0000
ENDCHAR
STARTCHAR char63
ENCODING 63
SWIDTH 1776 0
DWIDTH 16 0
BBX 12 25 1 -5
BITMAP
1F80
3FC0
70E0
E070
C030
0030
0030
0070
00E0
01C0
0380
0700
0E00
0C00
0C00
0000
0000
0E00
0E00
0E00
0000
0000
0000
0000
0000
ENDCHAR
STARTCHAR char64
ENCODING 64
SWIDTH 1776 0
DWIDTH 16 0
BBX 14 25 0 -5
BITMAP
0000
0000
0000
0000
0000
0000
0FC0
3FF0
6038
C01C
C78C
CFEC
CC6C
CC6C
CFF8
C7F0
E000
701C
3FF8
0FE0
0000
0000
0000
0000
0000
ENDCHAR
STARTCHAR char65
ENCODING 65
SWIDTH 1776 0
DWIDTH 16 0
BBX 13 25 0 -5
BITMAP
0200
0700
0700
0F80
0D80
0D80
18C0
18C0
18C0
3060
3060
3060
7FF0
7FF0
6030
6030
E038
C018
C018
C018
0000
0000
0000
0000
0000
ENDCHAR
STARTCHAR char66
ENCODING 66
SWIDTH 1776 0
DWIDTH 16 0
BBX 13 25 0 -5
BITMAP
FF80
FFE0
C060
C030
C030
C030
C030
C030
C060
FFE0
FFF0
C030
C018
C018
C018
C018
C018
C030
FFF0
FFC0
0000
0000
0000
0000
0000
ENDCHAR
STARTCHAR char67
ENCODING 67
SWIDTH 1776 0
DWIDTH 16 0
BBX 13 25 0 -5
BITMAP
1FC0
7FF0
6030
C018
C018
C000
C000
C000
C000
C000
C000
C000
C000
C000
C000
C018
C018
6030
7FF0
1FC0
0000
0000
0000
0000
0000
ENDCHAR
STARTCHAR char68
ENCODING 68
SWIDTH 1776 0
DWIDTH 16 0
BBX 13 25 0 -5
BITMAP
FFC0
FFF0
C030
C018
C018
C018
C018
C018
C018
C018
C018
C018
C018
C018
C018
C018
C018
C030
FFF0
FFC0
0000
0000
0000
0000
0000
ENDCHAR
STARTCHAR char69
ENCODING 69
SWIDTH 1776 0
DWIDTH 16 0
BBX 13 25 0 -5
BITMAP
FFF8
FFF8
C000
C000
C000
C000
C000
C000
C000
FFE0
FFE0
C000
C000
C000
C000
C000
C000
C000
FFF8
FFF8
0000
0000
0000
0000
0000
ENDCHAR
STARTCHAR char70
ENCODING 70
SWIDTH 1776 0
DWIDTH 16 0
BBX 13 25 0 -5
BITMAP
FFF8
FFF8
C000
C000
C000
C000
C000
C000
C000
FFE0
FFE0
C000
C000
C000
C000
C000
C000
C000
C000
C000
0000
0000
0000
0000
0000
ENDCHAR
STARTCHAR char71
ENCODING 71
SWIDTH 1776 0
DWIDTH 16 0
BBX 13 25 0 -5
BITMAP
1FC0
7FF0
6030
C018
C018
C000
C000
C000
C000
C000
C000
C0F8
C0F8
C018
C018
C018
C018
6030
7FF0
1FC0
0000
0000
0000
0000
0000
ENDCHAR
STARTCHAR char72
ENCODING 72
SWIDTH 1776 0
DWIDTH 16 0
BBX 13 25 0 -5
BITMAP
C018
C018
C018
C018
C018
C018
C018
C018
C018
FFF8
FFF8
C018
C018
C018
C018
C018
C018
C018
C018
C018
0000
0000
0000
0000
0000
ENDCHAR
STARTCHAR char73
ENCODING 73
SWIDTH 1776 0
DWIDTH 16 0
BBX 6 25 3 -5
BITMAP
FC
FC
30
30
30
30
30
30
30
30
30
30
30
30
30
30
30
30
FC
FC
00
00
00
00
00
ENDCHAR
STARTCHAR char74
ENCODING 74
SWIDTH 1776 0
DWIDTH 16 0
BBX 13 25 0 -5
BITMAP
0018
0018
0018
0018
0018
0018
0018
0018
0018
0018
0018
0018
0018
0018
0018
C018
C018
6030
7FF0
1FC0
0000
0000
0000
0000
0000
ENDCHAR
STARTCHAR char75
ENCODING 75
SWIDTH 1776 0
DWIDTH 16 0
BBX 13 25 0 -5
BITMAP
C018
C038
C070
C0E0
C1C0
C380
C700
CE00
DC00
F800
F000
F800
DC00
CE00
C700
C380
C1C0
C0E0
C070
C030
0000
0000
0000
0000
0000
ENDCHAR
STARTCHAR char76
ENCODING 76
SWIDTH 1776 0
DWIDTH 16 0
BBX 13 25 0 -5
BITMAP
C000
C000
C000
C000
C000
C000
C000
C000
C000
C000
C000
C000
C000
C000
C000
C000
C000
C000
FFF8
FFF8
0000
0000
0000
0000
0000
ENDCHAR
STARTCHAR char77
ENCODING 77
SWIDTH 1776 0
DWIDTH 16 0
BBX 13 25 0 -5
BITMAP
C018
E038
F078
F8F8
DDD8
CD98
C718
C218
C218
C018
C018
C018
C018
C018
C018
C018
C018
C018
C018
C018
0000
0000
0000
0000
0000
ENDCHAR
STARTCHAR char78
ENCODING 78
SWIDTH 1776 0
DWIDTH 16 0
BBX 13 25 0 -5
BITMAP
E018
E018
F018
F018
D818
D818
CC18
CC18
C618
C618
C318
C318
C198
C198
C0D8
C0D8
C078
C078
C038
C038
0000
0000
0000
0000
0000
ENDCHAR
STARTCHAR char79
ENCODING 79
SWIDTH 1776 0
DWIDTH 16 0
BBX 13 25 0 -5
BITMAP
1FC0
7FF0
6030
C018
C018
C018
C018
C018
C018
C018
C018
C018
C018
C018
C018
C018
C018
6030
7FF0
1FC0
0000
0000
0000
0000
0000
ENDCHAR
STARTCHAR char80
ENCODING 80
SWIDTH 1776 0
DWIDTH 16 0
BBX 13 25 0 -5
BITMAP
FFC0
FFF0
C030
C018
C018
C018
C018
C018
C030
FFF0
FFC0
C000
C000
C000
C000
C000
C000
C000
C000
C000
0000
0000
0000
0000
0000
ENDCHAR
STARTCHAR char81
ENCODING 81
SWIDTH 1776 0
DWIDTH 16 0
BBX 14 25 0 -5
BITMAP
1FC0
7FF0
6030
C018
C018
C018
C018
C018
C018
C018
C018
C018
C018
C018
C018
C0D8
C0F8
6070
7FF8
1FDC
000C
0000
0000
0000
0000
ENDCHAR
STARTCHAR char82
ENCODING 82
SWIDTH 1776 0
DWIDTH 16 0
BBX 13 25 0 -5
BITMAP
FFC0
FFF0
C030
C018
C018
C018
C018
C018
C030
FFF0
FFC0
C060
C060
C030
C030
C030
C030
C030
C018
C018
0000
0000
0000
0000
0000
ENDCHAR
STARTCHAR char83
ENCODING 83
SWIDTH 1776 0
DWIDTH 16 0
BBX 13 25 0 -5
BITMAP
1FC0
7FF0
6030
C018
C018
C000
C000
C000
6000
7FE0
1FF0
0030
0018
0018
0018
C018
C018
6030
7FF0
1FC0
0000
0000
0000
0000
0000
ENDCHAR
STARTCHAR char84
ENCODING 84
SWIDTH 1776 0
DWIDTH 16 0
BBX 12 25 1 -5
BITMAP
FFF0
FFF0
0600
0600
0600
0600
0600
0600
0600
0600
0600
0600
0600
0600
0600
0600
0600
0600
0600
0600
0000
0000
0000
0000
0000
ENDCHAR
STARTCHAR char85
ENCODING 85
SWIDTH 1776 0
DWIDTH 16 0
BBX 13 25 0 -5
BITMAP
C018
C018
C018
C018
C018
C018
C018
C018
C018
C018
C018
C018
C018
C018
C018
C018
C018
6030
7FF0
1FC0
0000
0000
0000
0000
0000
ENDCHAR
STARTCHAR char86
ENCODING 86
SWIDTH 1776 0
DWIDTH 16 0
BBX 13 25 0 -5
BITMAP
C018
C018
6030
6030
6030
3060
3060
3060
18C0
18C0
18C0
0D80
0D80
0D80
0700
0700
0700
0200
0200
0200
0000
0000
0000
0000
0000
ENDCHAR
STARTCHAR char87
ENCODING 87
SWIDTH 1776 0
DWIDTH 16 0
BBX 13 25 0 -5
BITMAP
C018
C018
C018
C018
C018
C018
C018
C018
C018
C018
C018
C218
C218
C718
CF98
DDD8
F8F8
F078
E038
C018
0000
0000
0000
0000
0000
ENDCHAR
STARTCHAR char88
ENCODING 88
SWIDTH 1776 0
DWIDTH 16 0
BBX 13 25 0 -5
BITMAP
C018
C018
6030
6030
3060
3060
18C0
18C0
0D80
0F80
0F80
0D80
18C0
18C0
3060
3060
6030
6030
C018
C018
0000
0000
0000
0000
0000
ENDCHAR
STARTCHAR char89
ENCODING 89
SWIDTH 1776 0
DWIDTH 16 0
BBX 12 25 1 -5
BITMAP
8010
8010
C030
C030
6060
6060
30C0
30C0
1980
1F80
0F00
0600
0600
0600
0600
0600
0600
0600
0600
0600
0000
0000
0000
0000
0000
ENDCHAR
STARTCHAR char90
ENCODING 90
SWIDTH 1776 0
DWIDTH 16 0
BBX 13 25 0 -5
BITMAP
FFF8
FFF8
0038
0030
0060
00E0
00C0
0180
0380
0300
0600
0E00
0C00
1800
3800
3000
6000
E000
FFF8
FFF8
0000
0000
0000
0000
0000
ENDCHAR
STARTCHAR char91
ENCODING 91
SWIDTH 1776 0
DWIDTH 16 0
BBX 6 25 7 -5
BITMAP
FC
FC
C0
C0
C0
C0
C0
C0
C0
C0
C0
C0
C0
C0
C0
C0
C0
C0
FC
FC
00
00
00
00
00
ENDCHAR
STARTCHAR char92
ENCODING 92
SWIDTH 1776 0
DWIDTH 16 0
BBX 12 25 1 -5
BITMAP
E000
6000
7000
3000
3800
1800
1C00
0C00
0E00
0600
0700
0300
0380
0180
01C0
00C0
00E0
0060
0070
0030
0000
0000
0000
0000
0000
ENDCHAR
STARTCHAR char93
ENCODING 93
SWIDTH 1776 0
DWIDTH 16 0
BBX 6 25 1 -5
BITMAP
FC
FC
0C
0C
0C
0C
0C
0C
0C
0C
0C
0C
0C
0C
0C
0C
0C
0C
FC
FC
00
00
00
00
00
ENDCHAR
STARTCHAR char94
ENCODING 94
SWIDTH 1776 0
DWIDTH 16 0
BBX 12 25 1 -5
BITMAP
0600
0F00
1F80
1F80
30C0
70E0
6060
E070
C030
8010
0000
0000
0000
0000
0000
0000
0000
0000
0000
0000
0000
0000
0000
0000
0000
ENDCHAR
STARTCHAR char95
ENCODING 95
SWIDTH 1776 0
DWIDTH 16 0
BBX 16 25 0 -5
BITMAP
0000
0000
0000
0000
0000
0000
0000
0000
0000
0000
0000
0000
0000
0000
0000
0000
0000
0000
0000
0000
0000
0000
FFFF
FFFF
0000
ENDCHAR
STARTCHAR char96
ENCODING 96
SWIDTH 1776 0
DWIDTH 16 0
BBX 5 25 6 -5
BITMAP
10
30
60
E0
F0
F8
F8
70
00
00
00
00
00
00
00
00
00
00
00
00
00
00
00
00
00
ENDCHAR
STARTCHAR char97
ENCODING 97
SWIDTH 1776 0
DWIDTH 16 0
BBX 12 25 1 -5
BITMAP
0000
0000
0000
0000
0000
0000
1FC0
3FE0
6030
6030
0030
00F0
0FF0
7F30
E030
C030
C070
C0F0
7FB0
3F30
0000
0000
0000
0000
0000
ENDCHAR
STARTCHAR char98
ENCODING 98
SWIDTH 1776 0
DWIDTH 16 0
BBX 12 25 1 -5
BITMAP
0000
0000
C000
C000
C000
C000
C000
C780
DFE0
F060
E030
C030
C030
C030
C030
C030
E030
F060
DFE0
C780
0000
0000
0000
0000
0000
ENDCHAR
STARTCHAR char99
ENCODING 99
SWIDTH 1776 0
DWIDTH 16 0
BBX 12 25 1 -5
BITMAP
0000
0000
0000
0000
0000
0000
0000
1FC0
7FE0
6030
C030
C000
C000
C000
C000
C000
C030
6030
7FE0
1FC0
0000
0000
0000
0000
0000
ENDCHAR
STARTCHAR char100
ENCODING 100
SWIDTH 1776 0
DWIDTH 16 0
BBX 12 25 1 -5
BITMAP
0000
0000
0030
0030
0030
0030
0030
1E30
7FB0
60F0
C070
C030
C030
C030
C030
C030
C070
60F0
7FB0
1E30
0000
0000
0000
0000
0000
ENDCHAR
STARTCHAR char101
ENCODING 101
SWIDTH 1776 0
DWIDTH 16 0
BBX 12 25 1 -5
BITMAP
0000
0000
0000
0000
0000
0000
0000
1F80
7FE0
6060
C030
C030
FFF0
FFF0
C000
C000
C030
6030
7FE0
1FC0
0000
0000
0000
0000
0000
ENDCHAR
STARTCHAR char102
ENCODING 102
SWIDTH 1776 0
DWIDTH 16 0
BBX 9 25 3 -5
BITMAP
0000
0000
0780
0F80
1800
1800
1800
1800
FF80
FF80
1800
1800
1800
1800
1800
1800
1800
1800
1800
1800
0000
0000
0000
0000
0000
ENDCHAR
STARTCHAR char103
ENCODING 103
SWIDTH 1776 0
DWIDTH 16 0
BBX 12 25 1 -5
BITMAP
0000
0000
0000
0000
0000
0000
0000
1E30
7FB0
60F0
C070
C030
C030
C030
C030
C030
C070
60F0
7FB0
1E30
0030
0030
6060
7FE0
3F80
ENDCHAR
STARTCHAR char104
ENCODING 104
SWIDTH 1776 0
DWIDTH 16 0
BBX 12 25 1 -5
BITMAP
0000
0000
C000
C000
C000
C000
C000
C780
DFE0
F860
E030
C030
C030
C030
C030
C030
C030
C030
C030
C030
0000
0000
0000
0000
0000
ENDCHAR
STARTCHAR char105
ENCODING 105
SWIDTH 1776 0
DWIDTH 16 0
BBX 3 25 5 -5
BITMAP
00
E0
E0
E0
00
00
00
60
60
60
60
60
60
60
60
60
60
60
60
60
00
00
00
00
00
ENDCHAR
STARTCHAR char106
ENCODING 106
SWIDTH 1776 0
DWIDTH 16 0
BBX 6 25 4 -5
BITMAP
00
00
1C
1C
1C
00
00
00
0C
0C
0C
0C
0C
0C
0C
0C
0C
0C
0C
0C
0C
0C
0C
F8
F0
ENDCHAR
STARTCHAR char107
ENCODING 107
SWIDTH 1776 0
DWIDTH 16 0
BBX 12 25 1 -5
BITMAP
0000
0000
C000
C000
C000
C000
C000
C1C0
C380
C700
CE00
DC00
FC00
FE00
E700
C380
C1C0
C0E0
C070
C030
0000
0000
0000
0000
0000
ENDCHAR
STARTCHAR char108
ENCODING 108
SWIDTH 1776 0
DWIDTH 16 0
BBX 2 25 6 -5
BITMAP
00
C0
C0
C0
C0
C0
C0
C0
C0
C0
C0
C0
C0
C0
C0
C0
C0
C0
C0
C0
00
00
00
00
00
ENDCHAR
STARTCHAR char109
ENCODING 109
SWIDTH 1776 0
DWIDTH 16 0
BBX 12 25 1 -5
BITMAP
0000
0000
0000
0000
0000
0000
C000
DCE0
FDF0
C630
C630
C630
C630
C630
C630
C630
C630
C630
C630
C630
0000
0000
0000
0000
0000
ENDCHAR
STARTCHAR char110
ENCODING 110
SWIDTH 1776 0
DWIDTH 16 0
BBX 12 25 1 -5
BITMAP
0000
0000
0000
0000
0000
0000
0000
CFC0
DFE0
F070
E030
C030
C030
C030
C030
C030
C030
C030
C030
C030
0000
0000
0000
0000
0000
ENDCHAR
STARTCHAR char111
ENCODING 111
SWIDTH 1776 0
DWIDTH 16 0
BBX 12 25 1 -5
BITMAP
0000
0000
0000
0000
0000
0000
0000
1F80
7FE0
6060
C030
C030
C030
C030
C030
C030
C030
6060
7FE0
1F80
0000
0000
0000
0000
0000
ENDCHAR
STARTCHAR char112
ENCODING 112
SWIDTH 1776 0
DWIDTH 16 0
BBX 12 25 1 -5
BITMAP
0000
0000
0000
0000
0000
0000
C000
C780
DFE0
F060
E030
C030
C030
C030
C030
C030
E030
F060
DFE0
C780
C000
C000
C000
C000
C000
ENDCHAR
STARTCHAR char113
ENCODING 113
SWIDTH 1776 0
DWIDTH 16 0
BBX 12 25 1 -5
BITMAP
0000
0000
0000
0000
0000
0000
0000
1E30
7FB0
60F0
C070
C030
C030
C030
C030
C030
C070
60F0
7FB0
1E30
0030
0030
0030
0030
0030
ENDCHAR
STARTCHAR char114
ENCODING 114
SWIDTH 1776 0
DWIDTH 16 0
BBX 11 25 1 -5
BITMAP
0000
0000
0000
0000
0000
0000
0000
C700
DFC0
F8E0
E060
C000
C000
C000
C000
C000
C000
C000
C000
C000
0000
0000
0000
0000
0000
ENDCHAR
STARTCHAR char115
ENCODING 115
SWIDTH 1776 0
DWIDTH 16 0
BBX 11 25 2 -5
BITMAP
0000
0000
0000
0000
0000
0000
0000
3F80
7FC0
C060
C060
C000
FF80
7FC0
0060
0060
C060
C060
7FC0
3F80
0000
0000
0000
0000
0000
ENDCHAR
STARTCHAR char116
ENCODING 116
SWIDTH 1776 0
DWIDTH 16 0
BBX 9 25 3 -5
BITMAP
0000
0000
1800
1800
1800
1800
1800
FF80
FF80
1800
1800
1800
1800
1800
1800
1800
1800
1800
0F80
0780
0000
0000
0000
0000
0000
ENDCHAR
STARTCHAR char117
ENCODING 117
SWIDTH 1776 0
DWIDTH 16 0
BBX 12 25 1 -5
BITMAP
0000
0000
0000
0000
0000
0000
0000
C030
C030
C030
C030
C030
C030
C030
C030
C030
C070
61F0
7FB0
1E30
0000
0000
0000
0000
0000
ENDCHAR
STARTCHAR char118
ENCODING 118
SWIDTH 1776 0
DWIDTH 16 0
BBX 12 25 1 -5
BITMAP
0000
0000
0000
0000
0000
0000
0000
C030
C030
E070
6060
70E0
30C0
39C0
1980
1F80
0F00
0F00
0600
0600
0000
0000
0000
0000
0000
ENDCHAR
STARTCHAR char119
ENCODING 119
SWIDTH 1776 0
DWIDTH 16 0
BBX 12 25 1 -5
BITMAP
0000
0000
0000
0000
0000
0000
0000
C030
C030
C030
C030
C030
C030
C030
C630
CF30
D9B0
F0F0
E070
C030
0000
0000
0000
0000
0000
ENDCHAR
STARTCHAR char120
ENCODING 120
SWIDTH 1776 0
DWIDTH 16 0
BBX 12 25 1 -5
BITMAP
0000
0000
0000
0000
0000
0000
0000
8010
C030
E070
70E0
39C0
1F80
0F00
1F80
39C0
70E0
E070
C030
8010
0000
0000
0000
0000
0000
ENDCHAR
STARTCHAR char121
ENCODING 121
SWIDTH 1776 0
DWIDTH 16 0
BBX 12 25 1 -5
BITMAP
0000
0000
0000
0000
0000
0000
0000
C030
C030
C030
C030
C030
C030
C030
C030
C030
C070
61F0
7FB0
1E30
0030
0030
6060
7FE0
3F80
ENDCHAR
STARTCHAR char122
ENCODING 122
SWIDTH 1776 0
DWIDTH 16 0
BBX 12 25 1 -5
BITMAP
0000
0000
0000
0000
0000
0000
0000
FFF0
FFF0
0060
00C0
0180
0300
0600
0C00
1800
3000
6000
FFF0
FFF0
0000
0000
0000
0000
0000
ENDCHAR
STARTCHAR char123
ENCODING 123
SWIDTH 1776 0
DWIDTH 16 0
BBX 6 25 7 -5
BITMAP
1C
30
60
60
30
30
30
30
60
E0
E0
60
30
30
30
30
60
60
30
1C
00
00
00
00
00
ENDCHAR
STARTCHAR char124
ENCODING 124
SWIDTH 1776 0
DWIDTH 16 0
BBX 2 25 6 -5
BITMAP
C0
C0
C0
C0
C0
C0
C0
C0
C0
C0
C0
C0
C0
C0
C0
C0
C0
C0
C0
C0
00
00
00
00
00
ENDCHAR
STARTCHAR char125
ENCODING 125
SWIDTH 1776 0
DWIDTH 16 0
BBX 6 25 1 -5
BITMAP
E0
30
18
18
30
30
30
30
18
1C
1C
18
30
30
30
30
18
18
30
E0
00
00
00
00
00
ENDCHAR
STARTCHAR char126
ENCODING 126
SWIDTH 1776 0
DWIDTH 16 0
BBX 14 25 0 -5
BITMAP
1C04
3E04
7F0C
E71C
C3F8
81F0
80E0
0000
0000
0000
0000
0000
0000
0000
0000
0000
0000
0000
0000
0000
0000
0000
0000
0000
0000
ENDCHAR
STARTCHAR char127
ENCODING 127
SWIDTH 1776 0
DWIDTH 16 0
BBX 14 25 0 -5
BITMAP
FFFC
FFFC
C000
C000
C000
C1E0
C3F0
C738
C418
C018
C018
C030
C060
C0C0
C180
C180
C000
C000
C180
C180
0000
0000
0000
0000
0000
ENDCHAR
ENDFONT
